PathFileType	4	(X/Y/Z)	./resultDataOpenSim/trcMotMarkerGrf/sub09/qtm-01-03.trc
DataRate	CameraRate	NumFrames	NumMarkers	Units	OrigDataRate	OrigDataStartFrame	OrigNumFrames
250.000000	250.000000	8	24	m	250.000000	349	465
Frame#	Time	L.Toe.Tip			R.Toe.Tip			L.Ankle.Lat			R.Ankle.Lat			L.Ankle.Med			R.Ankle.Med			L.Heel			R.Heel			L.Knee.Lat			R.Knee.Lat			L.Knee.Med			R.Knee.Med			L.Thigh.Upper			R.Thigh.Upper			L.ASIS			R.ASIS			V.Sacral			L.Acromium			R.Acromium			C7			L.Elbow			R.Elbow			L.Wrist.Lat			R.Wrist.Lat
		X1	Y1	Z1	X2	Y2	Z2	X3	Y3	Z3	X4	Y4	Z4	X5	Y5	Z5	X6	Y6	Z6	X7	Y7	Z7	X8	Y8	Z8	X9	Y9	Z9	X10	Y10	Z10	X11	Y11	Z11	X12	Y12	Z12	X13	Y13	Z13	X14	Y14	Z14	X15	Y15	Z15	X16	Y16	Z16	X17	Y17	Z17	X18	Y18	Z18	X19	Y19	Z19	X20	Y20	Z20	X21	Y21	Z21	X22	Y22	Z22	X23	Y23	Z23	X24	Y24	Z24

349	1.392	0.77808684	0.087618911	-0.048893254	0.99757224	0.038447286	0.088793027	0.68615829	0.21026514	-0.075661055	0.84988269	0.056468636	0.12616769	0.71491141	0.20172778	0.01868714	0.85988849	0.095334015	0.03424548	0.60730592	0.22096907	-0.026521125	0.77858105	0.039200641	0.078745859	0.98789672	0.48975478	-0.091524035	0.96022184	0.50129872	0.1822771	0.99244489	0.47830634	0.034181398	0.93722909	0.49148371	0.058977229	0.86762069	0.88574587	-0.12112555	0.88644486	0.90361982	0.24810707	0.94560702	0.97589494	-0.069137002	0.96676148	0.98841706	0.16839131	0.78782439	1.0366788	0.058683232	0.92983248	1.4331812	-0.12348516	0.92188338	1.4496794	0.20787044	0.85835195	1.4892411	0.043046296	0.77516434	1.1005855	-0.16926883	0.79816569	1.1101661	0.31172878	0.90072156	0.86451696	-0.19556533	0.9596596	0.88814773	0.32397883
350	1.396	0.79704276	0.085620926	-0.049200879	0.99763987	0.038423468	0.088802674	0.70209744	0.20582493	-0.075740842	0.84987603	0.056754522	0.1261141	0.73124761	0.19779889	0.018548995	0.86000285	0.095581233	0.034238609	0.62296737	0.21461507	-0.02667073	0.77861997	0.039571239	0.07856074	0.99782556	0.49205479	-0.091522575	0.96117568	0.50120495	0.18197959	1.0014706	0.48099522	0.033713593	0.938058	0.4916607	0.058584902	0.87349145	0.8871585	-0.12133558	0.8908937	0.90425862	0.24798997	0.95116622	0.97726106	-0.069104157	0.97201103	0.98915874	0.16850936	0.79316021	1.0376249	0.058555863	0.93515408	1.434069	-0.12363835	0.92776455	1.4508378	0.20766773	0.86398621	1.4901988	0.043063281	0.7796046	1.1019069	-0.16910184	0.80415646	1.1110604	0.31175525	0.90434249	0.86550799	-0.19626379	0.96737719	0.88998975	0.32335381
351	1.4	0.81610244	0.083607193	-0.049461722	0.99773004	0.038410968	0.088809739	0.7182176	0.20125401	-0.075834732	0.85019238	0.056992029	0.12591134	0.74806064	0.19378903	0.018279279	0.86016431	0.095848867	0.034236428	0.63883001	0.20810511	-0.026826048	0.77889046	0.039958598	0.078322664	1.0075511	0.49427327	-0.091484627	0.96242064	0.5011763	0.18200663	1.0104031	0.48354982	0.033189605	0.93876356	0.49184292	0.058123622	0.87936437	0.88850539	-0.12156223	0.89509975	0.90482117	0.24789456	0.95670417	0.97855379	-0.069060135	0.97725208	0.98986004	0.16861951	0.7984953	1.0385086	0.058403719	0.94047408	1.4348966	-0.12379188	0.93362315	1.4519359	0.20746692	0.86960466	1.4911041	0.043115205	0.78408323	1.1031702	-0.16894639	0.81016085	1.1119032	0.311808	0.9079844	0.86643541	-0.19695647	0.97509026	0.8917907	0.32272348
352	1.404	0.83533033	0.081608804	-0.049672242	0.99781878	0.038394366	0.088817721	0.7345173	0.19656221	-0.075945448	0.85065018	0.057210506	0.12565362	0.76513689	0.1897471	0.017962537	0.86047191	0.096127801	0.034169412	0.65489902	0.20143863	-0.026991147	0.77940783	0.040343642	0.07812466	1.0171086	0.49639648	-0.091437958	0.96386057	0.5012589	0.18221463	1.019262	0.48591182	0.032749915	0.93956446	0.49200384	0.057747646	0.88528812	0.88977882	-0.12181736	0.89925638	0.90534242	0.24780513	0.96223384	0.97976951	-0.069013495	0.98247771	0.99052029	0.16871449	0.80385373	1.039347	0.058238453	0.945794	1.4356646	-0.12394657	0.93946537	1.4529718	0.20726969	0.87520007	1.4919644	0.043148719	0.78859998	1.1043707	-0.16880305	0.81615636	1.1126949	0.31189187	0.91164248	0.86729885	-0.19765992	0.98278443	0.8935427	0.32208723
353	1.408	0.85479823	0.079640485	-0.04982568	0.99788467	0.038362951	0.088832973	0.75097678	0.1917813	-0.07605861	0.85095659	0.057464123	0.12548526	0.78217619	0.18570399	0.017707184	0.86091676	0.096413573	0.034031484	0.67119225	0.19462014	-0.027184797	0.78009048	0.040696391	0.078065264	1.0265546	0.4984083	-0.091409339	0.96531031	0.50142219	0.18241693	1.0289322	0.48818199	0.032666496	0.94050083	0.49219281	0.057564905	0.89131734	0.89097342	-0.12211914	0.903548	0.90587719	0.24770257	0.96775971	0.98090986	-0.068967931	0.98768738	0.9911427	0.16879555	0.80926027	1.0401608	0.058077294	0.95111859	1.4363728	-0.12410204	0.94529603	1.4539436	0.20707975	0.88079088	1.492779	0.04313507	0.79314573	1.1055014	-0.16867398	0.82212907	1.1134326	0.31200135	0.91531677	0.86809751	-0.19838201	0.99044246	0.89523427	0.3214496
354	1.412	0.87449091	0.077701766	-0.049929392	0.99792441	0.038325638	0.088856294	0.76758628	0.18694051	-0.076166782	0.85098301	0.057779314	0.12546111	0.79904447	0.18167048	0.017567566	0.86136413	0.096699866	0.033891896	0.68773281	0.18767381	-0.027427254	0.78074066	0.041021397	0.078128148	1.0359423	0.50029891	-0.09140163	0.96665813	0.50158613	0.1825515	1.0407875	0.49054973	0.033246448	0.94147909	0.49246483	0.057564547	0.89747297	0.89208637	-0.12248128	0.90803676	0.90645445	0.24758166	0.97329122	0.98197414	-0.068924746	0.99288783	0.99173252	0.16887236	0.81472639	1.0409617	0.057925592	0.95645228	1.4370174	-0.12426243	0.95111424	1.454851	0.20689689	0.88638641	1.4935462	0.043084642	0.79772194	1.1065606	-0.16855459	0.82810213	1.114115	0.31213706	0.91901265	0.86883118	-0.1991085	0.99805936	0.89685722	0.32080945
355	1.416	0.89428186	0.07580987	-0.049994632	0.99794923	0.038297693	0.088881594	0.78435751	0.18204873	-0.076277547	0.85088571	0.058130184	0.12549237	0.81577834	0.17764961	0.017542661	0.86174733	0.097001118	0.033819856	0.70452203	0.18064857	-0.027705851	0.78118192	0.04137339	0.078185072	1.0452953	0.5020936	-0.091402019	0.96793249	0.50170213	0.18269472	1.0553263	0.49309722	0.034525277	0.9425013	0.49277476	0.057657085	0.90369076	0.89311641	-0.12287503	0.91264224	0.90705543	0.24745143	0.97883825	0.98295854	-0.068885987	0.99808283	0.99229179	0.16894825	0.82021741	1.0417264	0.057768418	0.96179373	1.4375977	-0.12442837	0.95691676	1.4556947	0.20671926	0.89197094	1.494266	0.043014205	0.8023372	1.1075509	-0.16843975	0.83413486	1.1147429	0.31231319	0.92273556	0.86949945	-0.1998257	1.0056366	0.89841251	0.32016428
356	1.42	0.91406237	0.073990779	-0.050027497	0.99796766	0.038270961	0.088899453	0.80130282	0.1771118	-0.076396793	0.850922	0.058469875	0.12544367	0.83250218	0.17363491	0.017578888	0.86216798	0.097360802	0.033822094	0.72153225	0.17359329	-0.027974999	0.78139251	0.041797338	0.07814405	1.0545786	0.50384154	-0.091408462	0.96921612	0.50179581	0.18292232	1.0714605	0.49572792	0.036172045	0.94368849	0.49304022	0.057776995	0.90985167	0.89406464	-0.12324017	0.91726151	0.90764818	0.24732391	0.98440302	0.98385985	-0.068854617	1.0032716	0.99281985	0.16901788	0.82564873	1.0423983	0.057586783	0.96713544	1.4381194	-0.1245919	0.96270283	1.4564745	0.20654757	0.89753077	1.4949309	0.04293155	0.80699417	1.1084709	-0.16833384	0.8403046	1.1153207	0.31256017	0.9264882	0.87010047	-0.20053803	1.0131711	0.89990721	0.31952314
